# xmcd
# Track frame offsets:
# 150
# 18591
# 31927
# 52007
# 65444
# 75781
# 93268
# 114854
# 128953
# 145801
# 164455
# 183946
# 199390
#
# Disc length: 2937 seconds
# Revision: 0
# Processed by: cddbd v1.5.2PL0 Copyright (c) Steve Scherf et al.
# Submitted via: VisiTrax 2.11.3.279 - For more info visit www.synapsa.com
#
DISCID=a70b770d
DTITLE=The Crossroad Band - On Track Again
DYEAR=2015
DGENRE=
TTITLE0=The Mad Lady and Me
TTITLE1=Galway Girl
TTITLE2=The Night Ferry
TTITLE3=Ace in the Hole
TTITLE4=Beaumont Rag
TTITLE5=Grand Affair
TTITLE6=Mystery Train
TTITLE7=Blackjack County Train
TTITLE8=Irish Medley
TTITLE9=Spanish Lady
TTITLE10=Mull of Kintyre
TTITLE11=Whiskey in the Jar
TTITLE12=The Rare Ould Times
EXTD=
EXTT0=
EXTT1=
EXTT2=
EXTT3=
EXTT4=
EXTT5=
EXTT6=
EXTT7=
EXTT8=
EXTT9=
EXTT10=
EXTT11=
EXTT12=
PLAYORDER=
